<svg version="1" xmlns="http://www.w3.org/2000/svg" width="1600" height="1600" viewBox="0 0 1200.000000 1200.000000"><path d="M568 21.1c-102.7 5.6-202.2 38.5-288.5 95.4-33.2 21.9-59.8 43.7-90.1 74-38.3 38.2-66.1 74-92.3 119C10.6 457.7-5.7 639.4 53.2 801c23.4 64.1 58.2 124 102.8 177 14.7 17.5 50.8 53.6 68 68 123.9 104.2 282.6 152.3 441.9 134 114.8-13.1 220.9-59 310.1-134 17.4-14.6 53.4-50.6 68-68 44.8-53.2 79.4-112.9 102.8-177 50.5-138.8 46-294.1-12.6-429.5-22.5-52.1-53-101.2-90.2-145.5-15.1-18-52-54.7-70-69.6C858.5 60.5 716.2 13 568 21.1zM273 486.5V570h148V403h64v398h-64l-.2-87.2-.3-87.3h-147l-.3 87.2-.2 87.3h-65V403h65v83.5zm346.5-1.5c20.2 45.2 37.2 81.7 37.6 81.3.4-.4 16.9-37.3 36.8-81.8l36-81 34.5-.3 34.5-.2-5.3 11.2c-2.9 6.2-28.1 59.3-55.9 117.9L687 638.6V801h-60V637.4l-54.1-112c-29.8-61.5-55.2-114.3-56.5-117.2L514 403H582.7l36.8 82zM893 573.5V744h140v57H828V403h65v170.5z"/></svg>